<?xml version="1.0" encoding="UTF-8"?>
<svg id="Layer_1" xmlns="http://www.w3.org/2000/svg" version="1.1" xmlns:xlink="http://www.w3.org/1999/xlink" viewBox="0 0 1920 1080">
  <!-- Generator: Adobe Illustrator 29.5.1, SVG Export Plug-In . SVG Version: 2.1.0 Build 141)  -->
  <defs>
    <style>
      .st0 {
        fill: url(#linear-gradient2);
      }

      .st1 {
        fill: url(#linear-gradient1);
      }

      .st2 {
        fill: url(#radial-gradient);
      }

      .st3 {
        fill: url(#radial-gradient1);
      }

      .st4 {
        fill: url(#linear-gradient7);
      }

      .st5 {
        fill: url(#linear-gradient4);
      }

      .st6 {
        fill: url(#linear-gradient5);
      }

      .st7 {
        fill: url(#linear-gradient3);
      }

      .st8 {
        fill: #0334ac;
      }

      .st9 {
        fill: url(#radial-gradient2);
      }

      .st10 {
        fill: url(#linear-gradient6);
      }

      .st11 {
        fill: url(#radial-gradient3);
      }

      .st12 {
        fill: url(#linear-gradient);
      }
    </style>
    <linearGradient id="linear-gradient" x1="813.9" y1="417.9" x2="813.9" y2="543.2" gradientUnits="userSpaceOnUse">
      <stop offset="0" stop-color="#0079dd"/>
      <stop offset="1" stop-color="#034cb7"/>
    </linearGradient>
    <linearGradient id="linear-gradient1" x1="930.1" y1="416.3" x2="930.1" y2="540.4" xlink:href="#linear-gradient"/>
    <linearGradient id="linear-gradient2" x1="1058.5" y1="419" x2="1058.5" y2="540.4" xlink:href="#linear-gradient"/>
    <linearGradient id="linear-gradient3" x1="1186.8" y1="416.3" x2="1186.8" xlink:href="#linear-gradient"/>
    <linearGradient id="linear-gradient4" x1="1321.8" y1="416.3" x2="1321.8" y2="540.4" xlink:href="#linear-gradient"/>
    <linearGradient id="linear-gradient5" x1="1437.7" y1="419" x2="1437.7" y2="540.4" xlink:href="#linear-gradient"/>
    <linearGradient id="linear-gradient6" x1="1553.5" y1="379.2" x2="1553.5" y2="540.4" xlink:href="#linear-gradient"/>
    <linearGradient id="linear-gradient7" x1="1683.9" y1="416.3" x2="1683.9" xlink:href="#linear-gradient"/>
    <radialGradient id="radial-gradient" cx="351.4" cy="471.9" fx="351.4" fy="471.9" r="188.5" gradientUnits="userSpaceOnUse">
      <stop offset="0" stop-color="#fbcc04"/>
      <stop offset="1" stop-color="#fb9600"/>
    </radialGradient>
    <radialGradient id="radial-gradient1" cx="546.3" cy="465.5" fx="546.3" fy="465.5" r="135" gradientUnits="userSpaceOnUse">
      <stop offset="0" stop-color="#0496f9"/>
      <stop offset="1" stop-color="#0434bf"/>
    </radialGradient>
    <radialGradient id="radial-gradient2" cx="457.2" cy="528.5" fx="457.2" fy="528.5" r="203.5" gradientUnits="userSpaceOnUse">
      <stop offset="0" stop-color="#fcfeff"/>
      <stop offset="1" stop-color="#9ee8fc"/>
    </radialGradient>
    <radialGradient id="radial-gradient3" cx="409.1" cy="564.5" fx="409.1" fy="564.5" r="184.2" gradientUnits="userSpaceOnUse">
      <stop offset="0" stop-color="#40e86b"/>
      <stop offset="1" stop-color="#026f1c"/>
    </radialGradient>
  </defs>
  <g>
    <g>
      <path class="st12" d="M787.3,538.9c-7.2-2.9-13.1-7.1-17.8-12.6l20.6-24.3c3,3.8,6,6.6,8.9,8.4,2.9,1.8,5.9,2.8,9.1,2.8s7.1-1.2,9.2-3.6c2.1-2.4,3.2-5.9,3.2-10.5v-52.3h-38.6v-28.9h76.4v78.9c0,15.5-4,27.1-11.9,34.8-7.9,7.7-19.6,11.6-34.9,11.6s-16.9-1.4-24.1-4.3Z"/>
      <path class="st1" d="M961.3,423.3c9,4.7,16,11.5,21.1,20.5,5,9,7.5,19.6,7.5,32v64.7h-40.9v-24.4h-38.5v24.4h-40.2v-64.7c0-12.4,2.5-23,7.5-32,5-9,12-15.8,21.1-20.5,9-4.7,19.4-7,31.2-7s22.2,2.3,31.2,7ZM949,485.1v-12.8c0-7.5-1.8-13.2-5.3-17.1-3.5-3.9-8.2-5.8-14-5.8s-10.4,1.9-14,5.8c-3.5,3.9-5.3,9.6-5.3,17.1v12.8h38.5Z"/>
      <path class="st0" d="M1112.5,488.5c3.9,5.1,5.9,11.2,5.9,18.4,0,10.6-4.4,18.9-13.2,24.7-8.8,5.8-21.5,8.8-38.1,8.8h-68.3v-121.4h64.8c16.2,0,28.4,2.9,36.7,8.7,8.3,5.8,12.4,13.5,12.4,23.1s-1.4,10.7-4.2,15.3c-2.8,4.5-7,8.1-12.6,10.9,7.2,2.7,12.7,6.5,16.6,11.6ZM1039,447.6v18h19.1c8.9,0,13.3-3,13.3-9s-4.5-9-13.3-9h-19.1ZM1077.1,502.2c0-6.4-4.5-9.5-13.5-9.5h-24.6v19.1h24.6c9,0,13.5-3.2,13.5-9.5Z"/>
      <path class="st7" d="M1151.6,535c-10.4-5.4-18.6-13-24.4-22.6-5.9-9.6-8.8-20.5-8.8-32.7s2.9-23,8.8-32.7c5.9-9.6,14-17.2,24.4-22.6,10.4-5.4,22.1-8.1,35.2-8.1s24.8,2.7,35.2,8.1c10.4,5.4,18.6,13,24.4,22.6,5.9,9.7,8.8,20.5,8.8,32.7s-2.9,23-8.8,32.7c-5.9,9.7-14,17.2-24.4,22.6s-22.1,8.1-35.2,8.1-24.8-2.7-35.2-8.1ZM1200.6,506.3c4.1-2.5,7.4-6,9.8-10.6,2.4-4.6,3.6-9.9,3.6-16s-1.2-11.5-3.6-16c-2.4-4.6-5.7-8.1-9.8-10.6-4.1-2.5-8.7-3.7-13.8-3.7s-9.7,1.2-13.8,3.7c-4.1,2.5-7.4,6-9.8,10.6-2.4,4.6-3.6,9.9-3.6,16s1.2,11.5,3.6,16c2.4,4.6,5.7,8.1,9.8,10.6,4.1,2.5,8.7,3.7,13.8,3.7s9.7-1.2,13.8-3.7Z"/>
      <path class="st5" d="M1353,423.3c9,4.7,16,11.5,21.1,20.5,5,9,7.5,19.6,7.5,32v64.7h-40.9v-24.4h-38.5v24.4h-40.2v-64.7c0-12.4,2.5-23,7.5-32,5-9,12-15.8,21.1-20.5,9-4.7,19.4-7,31.2-7s22.2,2.3,31.2,7ZM1340.7,485.1v-12.8c0-7.5-1.8-13.2-5.3-17.1-3.5-3.9-8.2-5.8-14-5.8s-10.4,1.9-14,5.8c-3.5,3.9-5.3,9.6-5.3,17.1v12.8h38.5Z"/>
      <path class="st6" d="M1417.2,540.4v-89.6h-35.5v-31.7h112v31.7h-35.5v89.6h-40.9Z"/>
      <path class="st10" d="M1584.7,423.3c9,4.7,16,11.5,21.1,20.5,5,9,7.5,19.6,7.5,32v64.7h-40.9v-24.4h-38.5v24.4h-40.2v-64.7c0-12.4,2.5-23,7.5-32,5-9,12-15.8,21.1-20.5,9-4.7,19.4-7,31.2-7s22.2,2.3,31.2,7ZM1558.5,409.1c-2.7-1.2-5.4-2.7-8.3-4.7-2-1.3-3.6-2.2-4.8-2.9-1.2-.6-2.4-1-3.6-1-2.2,0-4,.8-5.4,2.3-1.4,1.5-2.2,3.6-2.4,6.2h-18.6c.2-9.2,2.5-16.6,6.7-21.9,4.2-5.4,10-8.1,17.3-8.1s6.4.6,9,1.7c2.7,1.2,5.4,2.7,8.3,4.7,2,1.4,3.6,2.4,4.8,2.9,1.2.6,2.4.9,3.6.9,2.2,0,4-.7,5.4-2.2,1.4-1.4,2.2-3.4,2.4-5.8h18.5c-.2,8.9-2.5,16-6.7,21.4-4.2,5.4-10,8.1-17.2,8.1s-6.4-.6-9-1.7ZM1572.4,485.1v-12.8c0-7.5-1.8-13.2-5.3-17.1-3.5-3.9-8.2-5.8-14-5.8s-10.4,1.9-14,5.8c-3.5,3.9-5.3,9.6-5.3,17.1v12.8h38.5Z"/>
      <path class="st4" d="M1648.7,535c-10.4-5.4-18.6-13-24.4-22.6-5.9-9.6-8.8-20.5-8.8-32.7s2.9-23,8.8-32.7c5.9-9.6,14-17.2,24.4-22.6,10.4-5.4,22.1-8.1,35.2-8.1s24.8,2.7,35.2,8.1c10.4,5.4,18.6,13,24.4,22.6,5.9,9.7,8.8,20.5,8.8,32.7s-2.9,23-8.8,32.7c-5.9,9.7-14,17.2-24.4,22.6s-22.1,8.1-35.2,8.1-24.8-2.7-35.2-8.1ZM1697.7,506.3c4.1-2.5,7.4-6,9.8-10.6,2.4-4.6,3.6-9.9,3.6-16s-1.2-11.5-3.6-16c-2.4-4.6-5.7-8.1-9.8-10.6-4.1-2.5-8.7-3.7-13.8-3.7s-9.7,1.2-13.8,3.7c-4.1,2.5-7.4,6-9.8,10.6-2.4,4.6-3.6,9.9-3.6,16s1.2,11.5,3.6,16c2.4,4.6,5.7,8.1,9.8,10.6,4.1,2.5,8.7,3.7,13.8,3.7s9.7-1.2,13.8-3.7Z"/>
    </g>
    <g>
      <path class="st8" d="M769.8,555.1h32.2c7.7,0,14.5,1.5,20.4,4.4,5.9,2.9,10.5,7.1,13.8,12.4,3.3,5.3,4.9,11.5,4.9,18.6s-1.6,13.3-4.9,18.6c-3.3,5.3-7.9,9.5-13.8,12.4-5.9,2.9-12.7,4.4-20.4,4.4h-32.2v-70.8ZM801.2,612.5c7.1,0,12.7-2,16.9-5.9,4.2-3.9,6.3-9.3,6.3-16s-2.1-12.1-6.3-16c-4.2-3.9-9.9-5.9-16.9-5.9h-15v43.9h15Z"/>
      <path class="st8" d="M865.8,622.4c-5.9-3.2-10.5-7.5-13.9-13.1-3.3-5.6-5-11.8-5-18.8s1.7-13.2,5-18.8c3.3-5.6,8-9.9,13.9-13.1,5.9-3.2,12.5-4.8,19.9-4.8s14,1.6,19.8,4.8c5.9,3.2,10.5,7.5,13.9,13.1,3.4,5.6,5.1,11.8,5.1,18.8s-1.7,13.2-5.1,18.8c-3.4,5.6-8,9.9-13.9,13.1-5.9,3.2-12.5,4.8-19.8,4.8s-14-1.6-19.9-4.8ZM897,610.3c3.4-1.9,6-4.6,7.9-8,1.9-3.4,2.9-7.4,2.9-11.7s-1-8.3-2.9-11.7c-1.9-3.4-4.6-6.1-7.9-8-3.4-1.9-7.1-2.9-11.3-2.9s-8,1-11.3,2.9c-3.4,1.9-6,4.6-7.9,8-1.9,3.4-2.9,7.4-2.9,11.7s1,8.3,2.9,11.7c1.9,3.4,4.6,6.1,7.9,8,3.4,1.9,7.1,2.9,11.3,2.9s8-1,11.3-2.9Z"/>
      <path class="st8" d="M941.8,624.9c-5.2-1.5-9.4-3.5-12.6-5.9l5.6-12.3c3,2.2,6.6,4,10.8,5.4,4.2,1.3,8.4,2,12.5,2s8.1-.7,10.3-2.1c2.2-1.4,3.3-3.2,3.3-5.5s-.7-3.1-2-4.2c-1.3-1.1-3-2-5.1-2.7-2.1-.7-4.8-1.4-8.3-2.2-5.4-1.3-9.8-2.6-13.3-3.8-3.4-1.3-6.4-3.3-8.9-6.2-2.5-2.8-3.7-6.6-3.7-11.3s1.1-7.8,3.3-11.2c2.2-3.3,5.6-6,10.1-7.9,4.5-2,10-2.9,16.4-2.9s8.9.5,13.3,1.6c4.3,1.1,8.1,2.6,11.3,4.7l-5.1,12.4c-6.5-3.7-13.1-5.6-19.6-5.6s-8,.7-10.2,2.2c-2.2,1.5-3.3,3.4-3.3,5.9s1.3,4.2,3.8,5.4c2.5,1.2,6.4,2.3,11.6,3.5,5.4,1.3,9.8,2.6,13.3,3.8,3.4,1.3,6.4,3.3,8.9,6.1,2.5,2.8,3.7,6.5,3.7,11.2s-1.1,7.7-3.4,11.1c-2.3,3.3-5.6,6-10.2,7.9-4.5,2-10,2.9-16.5,2.9s-11-.8-16.2-2.3Z"/>
      <path class="st8" d="M1071.7,589.4h15v36.5h-12.3v-4.3c-4.9,3.6-11.3,5.5-19,5.5s-12.5-1.4-18-4.3c-5.5-2.8-9.8-7-13.1-12.4-3.2-5.4-4.9-11.9-4.9-19.4s1.7-13.6,5-19.3c3.3-5.6,8-10,13.9-13.2,5.9-3.2,12.6-4.8,20-4.8s11.8,1,16.9,3.1c5.1,2.1,9.3,5.1,12.7,9.1l-10.5,9.7c-5.1-5.3-11.2-8-18.3-8s-8.5,1-12,2.9c-3.5,1.9-6.2,4.6-8.2,8.1-2,3.5-2.9,7.6-2.9,12.1s1,8.9,2.9,12.2c1.9,3.4,4.5,5.9,7.7,7.6,3.2,1.7,6.8,2.6,10.6,2.6,5.7,0,10.6-1.6,14.5-4.9v-19.2Z"/>
      <path class="st8" d="M1163.2,555.1v70.8h-15.9v-8.6c-4.9,6.5-12,9.8-21.5,9.8s-14.9-2.6-19.6-7.9c-4.7-5.3-7-12.8-7-22.6v-41.5h16.4v41c0,5.7,1.3,9.9,4,12.8,2.7,2.9,6.3,4.3,10.9,4.3s8.9-1.5,11.8-4.6c3-3.1,4.5-7.6,4.5-13.6v-39.9h16.4Z"/>
      <path class="st8" d="M1227,557.8c4.9,2.6,8.6,6.3,11.3,11.3s4,11,4,18.1v38.8h-16.4v-17h-32.4v17h-16.2v-38.8c0-7.1,1.3-13.1,4-18.1,2.7-5,6.5-8.8,11.3-11.3,4.9-2.6,10.6-3.8,17.1-3.8s12.2,1.3,17.1,3.8ZM1226,595.8v-10.1c0-5.9-1.5-10.3-4.4-13.3-2.9-3-6.8-4.5-11.8-4.5s-9,1.5-11.9,4.5c-2.9,3-4.3,7.4-4.3,13.3v10.1h32.4Z"/>
      <path class="st8" d="M1301.7,626l-13.7-19.7h-15.1v19.7h-16.4v-70.8h30.7c6.3,0,11.7,1,16.3,3.1,4.6,2.1,8.2,5.1,10.7,8.9,2.5,3.8,3.7,8.4,3.7,13.7s-1.3,9.8-3.8,13.6c-2.5,3.8-6.1,6.7-10.8,8.8l15.9,22.8h-17.6ZM1297.5,571.7c-2.6-2.1-6.3-3.2-11.2-3.2h-13.4v24.7h13.4c4.9,0,8.7-1.1,11.2-3.2,2.6-2.2,3.8-5.2,3.8-9.1s-1.3-7-3.8-9.2Z"/>
      <path class="st8" d="M1377.9,557.8c4.9,2.6,8.6,6.3,11.3,11.3s4,11,4,18.1v38.8h-16.4v-17h-32.4v17h-16.2v-38.8c0-7.1,1.3-13.1,4-18.1,2.7-5,6.5-8.8,11.3-11.3,4.9-2.6,10.6-3.8,17.1-3.8s12.2,1.3,17.1,3.8ZM1376.8,595.8v-10.1c0-5.9-1.5-10.3-4.4-13.3-2.9-3-6.8-4.5-11.8-4.5s-9,1.5-11.9,4.5c-2.9,3-4.3,7.4-4.3,13.3v10.1h32.4Z"/>
      <path class="st8" d="M1452.5,626l-13.7-19.7h-15.1v19.7h-16.4v-70.8h30.7c6.3,0,11.7,1,16.3,3.1,4.6,2.1,8.2,5.1,10.7,8.9,2.5,3.8,3.7,8.4,3.7,13.7s-1.3,9.8-3.8,13.6c-2.5,3.8-6.1,6.7-10.8,8.8l15.9,22.8h-17.6ZM1448.4,571.7c-2.6-2.1-6.3-3.2-11.2-3.2h-13.4v24.7h13.4c4.9,0,8.7-1.1,11.2-3.2,2.6-2.2,3.8-5.2,3.8-9.1s-1.3-7-3.8-9.2Z"/>
      <path class="st8" d="M1528.7,557.8c4.9,2.6,8.6,6.3,11.3,11.3,2.7,5,4,11,4,18.1v38.8h-16.4v-17h-32.4v17h-16.2v-38.8c0-7.1,1.3-13.1,4-18.1,2.7-5,6.5-8.8,11.3-11.3,4.9-2.6,10.6-3.8,17.1-3.8s12.2,1.3,17.1,3.8ZM1527.7,595.8v-10.1c0-5.9-1.5-10.3-4.4-13.3-2.9-3-6.8-4.5-11.8-4.5s-9,1.5-11.9,4.5c-2.9,3-4.3,7.4-4.3,13.3v10.1h32.4Z"/>
      <path class="st8" d="M1605.3,558.3c4.6,2.1,8.2,5.1,10.7,8.9,2.5,3.8,3.7,8.4,3.7,13.7s-1.2,9.7-3.7,13.6c-2.5,3.9-6.1,6.8-10.7,8.9-4.6,2.1-10.1,3.1-16.3,3.1h-14.3v19.5h-16.4v-70.8h30.7c6.3,0,11.7,1,16.3,3.1ZM1599.3,589.9c2.6-2.1,3.8-5.1,3.8-9.1s-1.3-7-3.8-9.2c-2.6-2.1-6.3-3.2-11.2-3.2h-13.4v24.6h13.4c4.9,0,8.7-1.1,11.2-3.2Z"/>
      <path class="st8" d="M1646.6,612.8h38.6v13.2h-54.8v-70.8h53.5v13.2h-37.2v44.5ZM1645.4,583.6h34.1v12.9h-34.1v-12.9Z"/>
      <path class="st8" d="M1703.2,624.9c-5.2-1.5-9.4-3.5-12.6-5.9l5.6-12.3c3,2.2,6.6,4,10.8,5.4,4.2,1.3,8.4,2,12.5,2s8.1-.7,10.3-2.1c2.2-1.4,3.3-3.2,3.3-5.5s-.7-3.1-2-4.2c-1.3-1.1-3-2-5.1-2.7-2.1-.7-4.8-1.4-8.3-2.2-5.4-1.3-9.8-2.6-13.3-3.8-3.4-1.3-6.4-3.3-8.9-6.2-2.5-2.8-3.7-6.6-3.7-11.3s1.1-7.8,3.3-11.2c2.2-3.3,5.6-6,10.1-7.9,4.5-2,10-2.9,16.4-2.9s8.9.5,13.3,1.6c4.3,1.1,8.1,2.6,11.3,4.7l-5.1,12.4c-6.5-3.7-13.1-5.6-19.6-5.6s-8,.7-10.2,2.2c-2.2,1.5-3.3,3.4-3.3,5.9s1.3,4.2,3.8,5.4c2.5,1.2,6.4,2.3,11.6,3.5,5.4,1.3,9.8,2.6,13.3,3.8,3.4,1.3,6.4,3.3,8.9,6.1,2.5,2.8,3.7,6.5,3.7,11.2s-1.1,7.7-3.4,11.1c-2.3,3.3-5.6,6-10.2,7.9-4.5,2-10,2.9-16.5,2.9s-11-.8-16.2-2.3Z"/>
    </g>
    <g>
      <path class="st8" d="M933.9,702.5v-36.1h14.1c3.2,0,5.9.5,8.1,1.5,2.2,1,4,2.4,5.2,4.3,1.2,1.9,1.8,4.1,1.8,6.7s-.6,4.9-1.8,6.7c-1.2,1.9-2.9,3.3-5.2,4.3-2.2,1-4.9,1.5-8.1,1.5h-11.2l2.3-2.4v13.3h-5.2ZM939.1,689.6l-2.3-2.6h11.1c3.3,0,5.8-.7,7.5-2.1,1.7-1.4,2.5-3.4,2.5-6s-.8-4.6-2.5-6c-1.7-1.4-4.2-2.1-7.5-2.1h-11.1l2.3-2.6v21.3Z"/>
      <path class="st8" d="M972.7,702.5v-36.1h14.1c3.2,0,5.9.5,8.1,1.5,2.2,1,4,2.4,5.2,4.3,1.2,1.9,1.8,4.1,1.8,6.7s-.6,4.9-1.8,6.7c-1.2,1.9-2.9,3.3-5.2,4.3-2.2,1-4.9,1.5-8.1,1.5h-11.2l2.3-2.4v13.3h-5.2ZM977.8,689.6l-2.3-2.5h11.1c3.3,0,5.8-.7,7.5-2.1,1.7-1.4,2.5-3.4,2.5-6s-.8-4.6-2.5-6c-1.7-1.4-4.2-2.1-7.5-2.1h-11.1l2.3-2.6v21.3ZM996.8,702.5l-9.2-13.1h5.5l9.3,13.1h-5.6Z"/>
      <path class="st8" d="M1017.4,698h21v4.5h-26.2v-36.1h25.5v4.5h-20.3v27.1ZM1016.9,681.9h18.6v4.4h-18.6v-4.4Z"/>
      <path class="st8" d="M1054,702.5h-5.2v-36.1h25.5v4.5h-20.3v31.6ZM1053.4,683.4h18.6v4.4h-18.6v-4.4Z"/>
      <path class="st8" d="M1088.7,698h21v4.5h-26.2v-36.1h25.5v4.5h-20.3v27.1ZM1088.3,681.9h18.6v4.4h-18.6v-4.4Z"/>
      <path class="st8" d="M1120.2,702.5v-36.1h5.2v36.1h-5.2Z"/>
      <path class="st8" d="M1145.4,702.5v-31.6h-12.4v-4.5h29.8v4.5h-12.4v31.6h-5.1Z"/>
      <path class="st8" d="M1184.8,702.9c-4.7,0-8.5-1.4-11.2-4.1-2.7-2.7-4.1-6.7-4.1-11.9v-20.5h5.2v20.3c0,4,.9,7,2.7,8.8,1.8,1.9,4.3,2.8,7.5,2.8s5.8-.9,7.5-2.8c1.8-1.9,2.7-4.8,2.7-8.8v-20.3h5v20.5c0,5.2-1.3,9.2-4,11.9-2.7,2.7-6.4,4.1-11.2,4.1Z"/>
      <path class="st8" d="M1212.7,702.5v-36.1h14.1c3.2,0,5.9.5,8.1,1.5,2.2,1,4,2.4,5.2,4.3,1.2,1.9,1.8,4.1,1.8,6.7s-.6,4.9-1.8,6.7c-1.2,1.9-2.9,3.3-5.2,4.3-2.2,1-4.9,1.5-8.1,1.5h-11.2l2.3-2.4v13.3h-5.2ZM1217.8,689.6l-2.3-2.5h11.1c3.3,0,5.8-.7,7.5-2.1,1.7-1.4,2.5-3.4,2.5-6s-.8-4.6-2.5-6c-1.7-1.4-4.2-2.1-7.5-2.1h-11.1l2.3-2.6v21.3ZM1236.8,702.5l-9.2-13.1h5.5l9.3,13.1h-5.6Z"/>
      <path class="st8" d="M1246.8,702.5l16.3-36.1h5.1l16.4,36.1h-5.4l-14.6-33.2h2.1l-14.6,33.2h-5.3ZM1253.7,693.4l1.4-4.1h20.3l1.5,4.1h-23.2Z"/>
      <path class="st8" d="M1307.9,702.5v-36.1h15.2c3.8,0,7.2.8,10.2,2.3,2.9,1.5,5.2,3.6,6.9,6.3,1.6,2.7,2.4,5.9,2.4,9.4s-.8,6.7-2.4,9.4c-1.6,2.7-3.9,4.8-6.9,6.3-2.9,1.5-6.3,2.3-10.2,2.3h-15.2ZM1313.1,698h9.7c3,0,5.6-.6,7.8-1.7,2.2-1.1,3.9-2.7,5.1-4.8,1.2-2,1.8-4.4,1.8-7.1s-.6-5.1-1.8-7.1c-1.2-2-2.9-3.6-5.1-4.7-2.2-1.1-4.8-1.7-7.8-1.7h-9.7v27.1Z"/>
      <path class="st8" d="M1346.6,702.5l16.3-36.1h5.1l16.4,36.1h-5.4l-14.6-33.2h2.1l-14.6,33.2h-5.3ZM1353.5,693.4l1.4-4.1h20.3l1.5,4.1h-23.2Z"/>
      <path class="st8" d="M1424.1,702.9c-2.8,0-5.3-.5-7.7-1.4-2.3-.9-4.4-2.2-6.1-3.9s-3.1-3.6-4-5.9c-1-2.2-1.4-4.7-1.4-7.4s.5-5.1,1.4-7.4c1-2.2,2.3-4.2,4-5.9,1.7-1.7,3.8-3,6.1-3.9,2.3-.9,4.9-1.4,7.7-1.4s5.5.5,7.8,1.4c2.4.9,4.4,2.3,6,4.2l-3.2,3.2c-1.5-1.4-3.1-2.5-4.8-3.2-1.7-.7-3.6-1-5.6-1s-4,.3-5.7,1c-1.8.7-3.3,1.6-4.6,2.9-1.3,1.2-2.3,2.7-3,4.4-.7,1.7-1.1,3.5-1.1,5.5s.4,3.8,1.1,5.5c.7,1.7,1.7,3.2,3,4.4,1.3,1.3,2.8,2.2,4.6,2.9,1.8.7,3.7,1,5.7,1s3.8-.3,5.5-.9c1.8-.6,3.4-1.6,4.9-3l2.9,3.9c-1.8,1.5-3.9,2.7-6.3,3.4-2.4.8-4.9,1.2-7.4,1.2ZM1432.8,697.6v-13.4h4.9v14.1l-4.9-.7Z"/>
      <path class="st8" d="M1454.8,698h21v4.5h-26.2v-36.1h25.5v4.5h-20.3v27.1ZM1454.3,681.9h18.6v4.4h-18.6v-4.4Z"/>
      <path class="st8" d="M1486.2,702.5v-36.1h4.2l23.9,29.6h-2.2v-29.6h5.2v36.1h-4.2l-23.9-29.6h2.2v29.6h-5.2Z"/>
      <path class="st8" d="M1537.3,702.5v-31.6h-12.4v-4.5h29.8v4.5h-12.4v31.6h-5.1Z"/>
      <path class="st8" d="M1567.6,698h21v4.5h-26.2v-36.1h25.5v4.5h-20.3v27.1ZM1567.1,681.9h18.6v4.4h-18.6v-4.4Z"/>
    </g>
  </g>
  <g>
    <path class="st2" d="M432.6,380.1v162.8c-38.1-16.7-80.1-25.9-124.3-25.9s-82.4,8.4-119.1,23.7c-14.9-23.5-22.4-50.4-22.4-77.3s0-4.8.2-7.1c1.7-34.6,15.8-68.7,42.2-95.1,56.5-56.5,148-56.5,204.5,0l18.9,18.9Z"/>
    <path class="st3" d="M656,565.7l-27.2,27.2c-48.4-66-116.8-116.5-196.2-142.6v-70.2l18.9-18.9c56.5-56.5,148-56.5,204.5,0,56.5,56.5,56.5,148.1,0,204.5Z"/>
    <path class="st9" d="M628.8,592.9l-62.2,62.2c-32.9-49.1-79.4-88.2-134-112.1v-92.6c79.4,26.1,147.7,76.6,196.2,142.6Z"/>
    <path class="st11" d="M566.6,655.1l-30.3,30.3c-.5.5-1,1-1.4,1.6l-57.9,57.9c-12.3,12.3-28.3,18.4-44.4,18.4s-32.1-6.1-44.4-18.4l-57.9-57.9c-.5-.5-1-1-1.4-1.6l-119.6-119.6c-7.7-7.7-14.4-16.1-20-25,36.7-15.3,76.9-23.7,119.1-23.7s86.2,9.2,124.3,25.9c54.7,23.9,101.1,63,134,112.1Z"/>
  </g>
</svg>